<mxfile host="65bd71144e">
    <diagram id="14yhM5xBdiUBdZTdxg5y" name="Page-1">
        <mxGraphModel dx="346" dy="547" grid="1" gridSize="10" guides="1" tooltips="1" connect="1" arrows="1" fold="1" page="1" pageScale="1" pageWidth="850" pageHeight="1100" math="0" shadow="0">
            <root>
                <mxCell id="0"/>
                <mxCell id="1" parent="0"/>
                <mxCell id="2" value="userTwo" style="whiteSpace=wrap;html=1;" vertex="1" parent="1">
                    <mxGeometry x="50" y="50" width="220" height="60" as="geometry"/>
                </mxCell>
                <mxCell id="3" value="userOne" style="whiteSpace=wrap;html=1;" vertex="1" parent="1">
                    <mxGeometry x="50" y="120" width="220" height="60" as="geometry"/>
                </mxCell>
                <mxCell id="4" value="myYoutubename" style="whiteSpace=wrap;html=1;" vertex="1" parent="1">
                    <mxGeometry x="50" y="190" width="220" height="60" as="geometry"/>
                </mxCell>
                <mxCell id="5" value="anothername" style="whiteSpace=wrap;html=1;" vertex="1" parent="1">
                    <mxGeometry x="50" y="260" width="220" height="60" as="geometry"/>
                </mxCell>
                <mxCell id="6" value="myYoutubename" style="whiteSpace=wrap;html=1;" vertex="1" parent="1">
                    <mxGeometry x="50" y="330" width="220" height="60" as="geometry"/>
                </mxCell>
                <mxCell id="8" value="STACK" style="text;strokeColor=none;align=center;fillColor=none;html=1;verticalAlign=middle;whiteSpace=wrap;rounded=0;" vertex="1" parent="1">
                    <mxGeometry x="70" y="10" width="160" height="30" as="geometry"/>
                </mxCell>
                <mxCell id="9" value="{&amp;nbsp;&lt;br&gt;email : &quot;user@google.com&quot;,&lt;br&gt;}" style="whiteSpace=wrap;html=1;" vertex="1" parent="1">
                    <mxGeometry x="475" y="90" width="270" height="250" as="geometry"/>
                </mxCell>
                <mxCell id="11" value="HEAP&lt;br&gt;" style="text;strokeColor=none;align=center;fillColor=none;html=1;verticalAlign=middle;whiteSpace=wrap;rounded=0;" vertex="1" parent="1">
                    <mxGeometry x="580" y="40" width="60" height="30" as="geometry"/>
                </mxCell>
            </root>
        </mxGraphModel>
    </diagram>
</mxfile>